<?xml version="1.0" encoding="UTF-8"?>
<svg version="1.1" xmlns="http://www.w3.org/2000/svg" width="683" height="377">
<path d="M0 0 C225.39 0 450.78 0 683 0 C683 124.41 683 248.82 683 377 C457.61 377 232.22 377 0 377 C0 252.59 0 128.18 0 0 Z " fill="#F7F7F6" transform="translate(0,0)"/>
<path d="M0 0 C0.65579544 -0.00700928 1.31159088 -0.01401855 1.98725891 -0.02124023 C4.14957349 -0.03880847 6.31057309 -0.02720206 8.47290039 -0.01367188 C9.97978465 -0.0163675 11.48666722 -0.0202505 12.99354553 -0.02526855 C16.15016253 -0.03116222 19.30632637 -0.02260671 22.46289062 -0.00390625 C26.50274527 0.01886438 30.54153582 0.0057725 34.58135128 -0.01819611 C37.69299789 -0.0326748 40.80439374 -0.02803843 43.91604805 -0.01768494 C45.40514821 -0.01502232 46.89427136 -0.01827107 48.38334465 -0.02760315 C50.46841261 -0.03780162 52.55177717 -0.0222249 54.63671875 0 C55.82156357 0.00318237 57.00640839 0.00636475 58.22715759 0.00964355 C62.04919524 0.62479157 63.66342727 1.80566479 66.38305664 4.51757812 C67.55137634 6.30232239 67.55137634 6.30232239 68.32421875 8.13012695 C68.77510109 9.16820244 68.77510109 9.16820244 69.23509216 10.22724915 C69.54044388 10.96887802 69.84579559 11.7105069 70.16040039 12.47460938 C70.49423233 13.25462814 70.82806427 14.03464691 71.17201233 14.83830261 C72.23460142 17.33024447 73.27761159 19.82986076 74.32055664 22.33007812 C75.01658544 23.96797406 75.71384066 25.6053494 76.41235352 27.2421875 C79.53786669 34.5938583 82.58119951 41.97293037 85.51196289 49.40429688 C87.78835147 55.14343159 90.28230605 60.74002829 92.9050293 66.328125 C95.41931641 71.75373564 97.73448328 77.26347519 100.07055664 82.76757812 C101.1229741 85.23544608 102.17601346 87.70303012 103.23071289 90.16992188 C103.62652557 91.09577339 103.62652557 91.09577339 104.03033447 92.04032898 C106.64870134 98.15499697 109.32192834 104.24494044 112.00805664 110.33007812 C116.72712095 121.02555857 121.42718307 131.72830854 126.05786133 142.46240234 C127.51021216 145.81072922 128.98223292 149.15012192 130.45336914 152.49023438 C131.47220137 154.83242006 132.49044234 157.17486303 133.50805664 159.51757812 C133.9940332 160.60997803 134.48000977 161.70237793 134.98071289 162.82788086 C139.34712426 172.96001187 139.34712426 172.96001187 138.38305664 178.51757812 C136.90649414 181.08007812 136.90649414 181.08007812 134.75805664 183.51757812 C133.94336914 184.45214844 133.12868164 185.38671875 132.28930664 186.34960938 C131.32402758 187.40877267 130.35500404 188.46453073 129.38305664 189.51757812 C128.82618164 190.12263184 128.26930664 190.72768555 127.69555664 191.35107422 C124.68002014 194.61542555 121.64385883 197.85951809 118.59399414 201.09179688 C116.30340476 203.52415975 114.05964897 205.98190331 111.88305664 208.51757812 C108.48741572 212.44891813 104.97303301 216.26729116 101.44555664 220.08007812 C100.87192383 220.70591797 100.29829102 221.33175781 99.70727539 221.9765625 C98.5799635 223.18931545 97.43444932 224.38546849 96.26921844 225.56183529 C94.38954163 227.4487813 94.38954163 227.4487813 92.90100861 229.38061619 C89.27454658 233.39508215 86.13682543 234.91349689 80.69672394 235.2917527 C76.71729765 235.4148747 72.74803246 235.37361267 68.76782227 235.31225586 C66.9735624 235.3102796 65.17929687 235.31139307 63.38504028 235.31535339 C58.52979717 235.31735709 53.67577122 235.27628094 48.82081032 235.22733569 C43.74132122 235.18349645 38.66180241 235.17945827 33.58215332 235.17115784 C23.97025788 235.14942446 14.35892155 235.09201294 4.74727201 235.02171141 C-6.19821257 234.9433964 -17.14372423 234.90496343 -28.08941936 234.86984336 C-50.59890368 234.79672843 -73.10789215 234.67364951 -95.61694336 234.51757812 C-95.81472413 235.12204332 -96.0125049 235.72650852 -96.21627903 236.34929085 C-96.48010852 237.14943045 -96.74393801 237.94957005 -97.01576233 238.7739563 C-97.40524599 239.9590916 -97.40524599 239.9590916 -97.802598 241.16816902 C-99.00683632 244.64243019 -100.47362625 247.97416691 -101.98803711 251.32226562 C-102.30620895 252.0349913 -102.6243808 252.74771698 -102.95219421 253.48204041 C-103.98234875 255.78733448 -105.01834813 258.08994878 -106.05444336 260.39257812 C-106.77931221 262.01177393 -107.50375382 263.63116107 -108.2277832 265.25073242 C-109.67942673 268.49690685 -111.13302813 271.74219295 -112.58813477 274.98681641 C-115.32481263 281.0929439 -118.03227009 287.21192601 -120.74194336 293.33007812 C-123.94035951 300.54532868 -127.16826289 307.74635826 -130.43334961 314.93164062 C-130.75603821 315.64259384 -131.07872681 316.35354706 -131.41119385 317.08604431 C-132.99063055 320.56560609 -134.57334773 324.04359629 -136.16235352 327.51879883 C-136.7345941 328.7774439 -137.30670364 330.03614857 -137.87866211 331.29492188 C-138.38357178 332.40085693 -138.88848145 333.50679199 -139.40869141 334.64624023 C-140.7575484 337.64727168 -140.7575484 337.64727168 -141.61694336 341.51757812 C-127.09694336 341.18757813 -112.57694336 340.85757812 -97.61694336 340.51757812 C-95.05944336 334.49507813 -92.50194336 328.47257812 -89.86694336 322.26757812 C-87.32177734 316.29663086 -87.32177734 316.29663086 -86.23634338 313.75172424 C-83.41159024 307.12644881 -80.59437817 300.49949754 -77.86129761 293.83578491 C-77.05332021 291.86663745 -76.23904762 289.90022183 -75.42260742 287.93457031 C-74.45155549 285.59045476 -73.49315123 283.24104603 -72.54956055 280.88574219 C-72.11417969 279.84256836 -71.67879883 278.79939453 -71.23022461 277.72460938 C-70.86711182 276.83233643 -70.50399902 275.94006348 -70.12988281 275.02075195 C-68.1766831 271.78916301 -65.80124697 269.50166695 -62.61694336 267.51757812 C-59.31740761 266.90233898 -59.31740761 266.90233898 -55.66934204 266.91630554 C-54.9945129 266.91203342 -54.31968377 266.90776129 -53.62440526 266.90335971 C-51.3759504 266.89516071 -49.12938478 266.92255904 -46.88110352 266.94995117 C-45.26447595 266.95136233 -43.64784519 266.95056833 -42.03121948 266.94773865 C-37.65126724 266.94630572 -33.27200147 266.97567513 -28.89220858 267.01060843 C-24.3118314 267.04189271 -19.73143799 267.0448043 -15.15097046 267.05073547 C-6.48118992 267.06626784 2.18827488 267.10728807 10.85791647 267.15748292 C20.72964902 267.21339528 30.60139674 267.24086765 40.47324824 267.2659601 C60.77669384 267.31820447 81.07985534 267.40613496 101.38305664 267.51757812 C101.59575195 266.58171875 101.59575195 266.58171875 101.81274414 265.62695312 C102.52988444 262.97451638 103.08618367 262.04882677 105.38305664 260.51757812 C108.75805664 260.01757812 108.75805664 260.01757812 112.38305664 260.51757812 C116.23257773 263.77257432 118.26042497 266.78104527 120.10961914 271.43554688 C120.57851563 272.5945752 121.04741211 273.75360352 121.53051758 274.94775391 C122.0230781 276.20017663 122.51558992 277.45261851 123.00805664 278.70507812 C123.53034892 280.00498643 124.05413485 281.30429551 124.5793457 282.60302734 C125.38691627 284.60055628 126.19353059 286.59841376 126.9954834 288.59820557 C129.62319251 295.149139 132.36821188 301.64843052 135.13305664 308.14257812 C136.03028897 310.25972455 136.92742661 312.37691112 137.82446289 314.49414062 C139.49413764 318.4284969 141.16943985 322.36040066 142.84790039 326.29101562 C143.58880843 328.0331935 144.3296952 329.77538043 145.07055664 331.51757812 C145.5795752 332.702146 145.5795752 332.702146 146.09887695 333.91064453 C148.38305664 339.29166805 148.38305664 339.29166805 148.38305664 341.51757812 C163.23305664 341.51757812 178.08305664 341.51757812 193.38305664 341.51757812 C191.46493164 337.24820312 189.54680664 332.97882813 187.57055664 328.58007812 C179.09377214 309.67647574 170.70741263 290.7418114 162.66796875 271.6472168 C158.93482823 262.7907593 155.13994843 253.96208264 151.32055664 245.14257812 C151.03666077 244.4859317 150.75276489 243.82928528 150.46026611 243.15274048 C149.65326965 241.2868145 148.84437337 239.42171053 148.03540039 237.55664062 C147.57125732 236.48623535 147.10711426 235.41583008 146.62890625 234.31298828 C145.8826207 232.63848906 145.10020687 230.97841666 144.24853516 229.35498047 C142.77531156 226.22734132 142.90757267 223.90540139 143.38305664 220.51757812 C145.94555664 217.51757813 145.94555664 217.51757813 149.38305664 215.51757812 C153.00805664 215.39257812 153.00805664 215.39257812 156.38305664 216.51757812 C159.83743872 220.1624453 161.77509708 224.19584013 163.66821289 228.78320312 C163.96550797 229.48486099 164.26280304 230.18651886 164.56910706 230.90943909 C165.20475315 232.41200953 165.83683244 233.91609304 166.46563721 235.42153931 C167.7951381 238.60451599 169.14173157 241.78016719 170.48730469 244.95637512 C171.16512648 246.55689504 171.84204746 248.15779675 172.51806641 249.75907898 C175.2855362 256.31069304 178.12629015 262.82790714 181.00805664 269.33007812 C185.28757753 279.00662564 189.50689875 288.70823217 193.70553589 298.42004395 C198.08034293 308.53722391 202.49805802 318.63450025 206.95727539 328.71484375 C207.38008789 329.67197266 207.80290039 330.62910156 208.23852539 331.61523438 C208.6061499 332.44547119 208.97377441 333.27570801 209.35253906 334.13110352 C210.40847281 336.57643694 211.3981851 339.04291068 212.38305664 341.51757812 C212.38365373 340.80851092 212.38425082 340.09944372 212.384866 339.36888963 C212.42074157 297.36576732 212.47735221 255.36271767 212.56097759 213.35966196 C212.57099533 208.31895787 212.58083941 203.27825346 212.59057617 198.23754883 C212.59348823 196.73224631 212.59348823 196.73224631 212.59645912 195.19653364 C212.62750016 178.93660074 212.64446564 162.67668197 212.65625086 146.41672502 C212.66865153 129.73880748 212.69612837 113.0609642 212.73766971 96.38309354 C212.7628362 86.08772917 212.77617163 75.7924879 212.77448621 65.49709233 C212.77445651 58.44201509 212.78903962 51.38706347 212.81522092 44.33203516 C212.82990289 40.25852623 212.8380392 36.1852749 212.82885933 32.11174393 C212.82060044 28.38391517 212.83064911 24.65660505 212.85539326 20.92885341 C212.86380597 18.93829766 212.85250714 16.94768891 212.84055829 14.95715123 C212.85200588 13.77677508 212.86345347 12.59639892 212.87524796 11.38025379 C212.87676684 10.36146415 212.87828572 9.3426745 212.87985063 8.29301244 C213.5273736 4.72159747 214.80941106 3.04274555 217.38305664 0.51757812 C222.16497985 -0.24145731 223.90723117 -0.44095822 227.97447777 2.20068455 C232.25679775 6.67859604 231.06827147 13.47300483 231.01797485 19.25193787 C231.02373608 20.6832928 231.03167722 22.11464035 231.04161108 23.54597241 C231.06250828 27.47963912 231.05215655 31.41270032 231.03667998 35.34636939 C231.02538189 39.58846835 231.04282156 43.83046212 231.05657959 48.07254028 C231.07883365 56.38318975 231.07400103 64.69361366 231.05951639 73.00427204 C231.04823189 79.75803007 231.04668982 86.51172482 231.05213547 93.26548958 C231.05290163 94.22613014 231.0536678 95.1867707 231.05445718 96.17652159 C231.05605578 98.12795855 231.05767685 100.07939549 231.05932014 102.03083242 C231.07358419 120.3375766 231.05717503 138.64419567 231.0303183 156.95091934 C231.0079825 172.6624106 231.01185594 188.37371715 231.03491211 204.08520508 C231.06166467 222.32415546 231.07220707 240.56299612 231.05685079 258.80196339 C231.05525802 260.74659254 231.05368617 262.69122172 231.05213547 264.63585091 C231.05136409 265.59267796 231.05059271 266.54950501 231.04979796 267.53532682 C231.04547906 274.2812576 231.05277167 281.02711885 231.06453323 287.77303886 C231.07855089 295.99379908 231.07477395 304.21432056 231.04812951 312.4350534 C231.03498081 316.63029213 231.0298566 320.82513272 231.04637527 325.02036858 C231.06126668 328.86038961 231.05310094 332.69964321 231.02648751 336.53959454 C231.02089894 337.92917153 231.02375162 339.31881326 231.03586645 340.70834868 C231.12982122 352.37933424 231.12982122 352.37933424 228.08011341 356.33587265 C224.5010825 359.23102541 221.53044565 359.3707537 217.10791016 359.30981445 C216.28776428 359.32193466 215.46761841 359.33405487 214.62261963 359.34654236 C211.91832184 359.37798346 209.21636756 359.36544807 206.51196289 359.34960938 C204.62775553 359.35619329 202.74355323 359.36441122 200.85935974 359.37419128 C196.91246061 359.38754169 192.9663743 359.37870542 189.01953125 359.35473633 C183.96705829 359.32616428 178.91691945 359.35619637 173.86465549 359.40337086 C169.97397298 359.43259499 166.08384612 359.42882274 162.19309807 359.41534996 C160.33080158 359.41319934 158.46846079 359.42167879 156.60626411 359.44108009 C153.9986267 359.46364982 151.39503323 359.4412889 148.78759766 359.4074707 C148.02221176 359.42321136 147.25682587 359.43895203 146.46824646 359.45516968 C143.16312035 359.37075115 141.16342952 359.17612816 138.58582973 357.00091362 C135.5622618 353.55084896 133.38971977 350.05368955 131.62915039 345.79882812 C131.17338623 344.71625732 130.71762207 343.63368652 130.24804688 342.51831055 C129.7769751 341.36306885 129.30590332 340.20782715 128.82055664 339.01757812 C128.04672127 337.16622235 127.27287792 335.31486988 126.49867249 333.46366882 C125.68333351 331.50778784 124.87423751 329.54942541 124.06665039 327.59033203 C122.33599429 323.39569742 120.58049775 319.21171415 118.82055664 315.02929688 C116.11365156 308.59443708 113.41629886 302.15567811 110.7265625 295.71362305 C109.29498342 292.30806212 107.83828133 288.91310239 106.38305664 285.51757812 C52.92305664 285.51757812 -0.53694336 285.51757812 -55.61694336 285.51757812 C-59.57694336 295.08757812 -63.53694336 304.65757812 -67.61694336 314.51757812 C-69.59694336 318.80757813 -71.57694336 323.09757812 -73.61694336 327.51757812 C-74.55606046 329.86537089 -75.49515179 332.21318646 -76.42553711 334.56445312 C-78.09845984 338.7111075 -79.80282796 342.84101717 -81.55444336 346.95507812 C-82.04050049 348.14653442 -82.04050049 348.14653442 -82.53637695 349.36206055 C-82.8607373 350.11334229 -83.18509766 350.86462402 -83.51928711 351.63867188 C-83.80280029 352.31341553 -84.08631348 352.98815918 -84.37841797 353.68334961 C-86.10311366 356.23758552 -87.85858057 357.14631023 -90.61694336 358.51757812 C-93.72814941 358.90525818 -93.72814941 358.90525818 -97.25561523 358.92163086 C-98.22489708 358.93192574 -98.22489708 358.93192574 -99.21376038 358.94242859 C-101.33796504 358.96064736 -103.46142776 358.95686705 -105.58569336 358.95117188 C-107.06872802 358.95573565 -108.55176056 358.9610418 -110.03479004 358.96705627 C-113.13827117 358.97597732 -116.24149483 358.9735754 -119.3449707 358.96362305 C-123.31638264 358.95212645 -127.28690633 358.97235942 -131.2582016 359.00154018 C-134.31920996 359.01990973 -137.38000564 359.01960845 -140.4410553 359.01390266 C-141.90504707 359.01374958 -143.36905338 359.01978317 -144.83299255 359.03219414 C-146.88198181 359.04712039 -148.92933253 359.03641895 -150.97827148 359.01928711 C-152.72436707 359.01903786 -152.72436707 359.01903786 -154.5057373 359.01878357 C-158.29873189 358.40774415 -159.94895479 357.24532279 -162.61694336 354.51757812 C-164.53441593 347.74589843 -162.8995575 343.49522399 -159.97241211 337.29882812 C-159.57602036 336.42010544 -159.1796286 335.54138275 -158.77122498 334.6360321 C-157.46657516 331.75482734 -156.13563582 328.88660309 -154.80444336 326.01757812 C-153.88574732 324.00060503 -152.96894223 321.98276965 -152.05395508 319.96411133 C-150.17456322 315.82463438 -148.28518632 311.68995672 -146.38696289 307.55908203 C-142.66492698 299.45392809 -139.00989628 291.31890781 -135.35595703 283.18289185 C-134.24557758 280.71316143 -133.13191098 278.2449382 -132.01733398 275.77709961 C-128.48401205 267.94766528 -124.98289757 260.10620854 -121.55834961 252.22851562 C-121.23695007 251.48968643 -120.91555054 250.75085724 -120.58441162 249.98963928 C-119.08797109 246.54597027 -117.59774631 243.09980097 -116.11743164 239.64916992 C-108.33955859 221.66598828 -108.33955859 221.66598828 -103.61694336 218.51757812 C-101.17007089 218.34473013 -98.84117713 218.28855223 -96.39627075 218.32658386 C-95.65558975 218.32996382 -94.91490875 218.33334377 -94.15178287 218.33682615 C-91.66231423 218.3502935 -89.17319177 218.37785582 -86.68383789 218.4050293 C-84.90156204 218.41701028 -83.11927878 218.42793026 -81.33699036 218.43786621 C-77.4933645 218.46028563 -73.64981735 218.48773509 -69.80624771 218.51827049 C-63.71995706 218.56404476 -57.63377285 218.58303427 -51.54733276 218.59529114 C-50.51983512 218.59745752 -49.49233748 218.5996239 -48.43370354 218.60185593 C-46.33214204 218.60619143 -44.23058037 218.61044386 -42.12901855 218.61461508 C-27.95855335 218.64337841 -13.78885185 218.68761488 0.38110352 218.81567383 C9.93724399 218.9018387 19.49235027 218.94162404 29.04888642 218.92842084 C34.10340296 218.92325872 39.15538997 218.94135469 44.20940781 219.01613426 C48.9727565 219.08621742 53.73238963 219.09473337 58.49607277 219.05779266 C60.23551415 219.0549638 61.97516441 219.07403865 63.71405983 219.11770821 C72.30614831 219.32135261 78.58505129 219.06371052 85.07653534 212.96985847 C87.66724986 210.26788293 90.04389987 207.43716315 92.38305664 204.51757812 C93.65614549 203.07774966 94.93307425 201.64127126 96.21899414 200.21289062 C96.74203125 199.59833008 97.26506836 198.98376953 97.80395508 198.35058594 C101.36889676 194.21243162 105.19520552 190.30371636 108.95336914 186.34179688 C110.20145899 185.01953775 111.43924955 183.68746218 112.6652832 182.34472656 C114.38305664 180.51757813 114.38305664 180.51757813 116.06176758 179.04199219 C117.80027037 177.52379521 117.80027037 177.52379521 119.38305664 174.51757812 C119.11440849 170.90326554 117.79297513 167.83060117 116.38305664 164.51757812 C115.96185547 163.51533203 115.5406543 162.51308594 115.10668945 161.48046875 C113.61767886 158.05481182 112.06958089 154.66077055 110.50805664 151.26757812 C109.32615414 148.67021076 108.14950614 146.07047343 106.97290039 143.47070312 C106.5226223 142.47780273 106.5226223 142.47780273 106.06324768 141.46484375 C102.99187005 134.68081696 100.02205981 127.85464516 97.07055664 121.01757812 C96.67598267 120.10393997 96.67598267 120.10393997 96.2734375 119.17184448 C94.89489073 115.97949451 93.51774352 112.78654378 92.14135742 109.59326172 C90.27741758 105.27041821 88.40670036 100.95052082 86.53540039 96.63085938 C80.07924237 81.72535642 73.63544347 66.81445905 67.22381592 51.88973999 C66.59346501 50.42301784 65.96251101 48.95655468 65.33087158 47.49038696 C64.44794852 45.44035726 63.56755695 43.38925677 62.68774414 41.33789062 C62.19258301 40.18562988 61.69742188 39.03336914 61.18725586 37.84619141 C58.51409006 31.43276384 55.96356364 24.96884561 53.38305664 18.51757812 C39.52305664 18.18757813 25.66305664 17.85757812 11.38305664 17.51757812 C14.96995223 27.08263302 18.56066952 36.5497256 22.50805664 45.95507812 C23.55220631 48.46110559 24.59539745 50.96750874 25.63696289 53.47460938 C25.92125656 54.15859802 26.20555023 54.84258667 26.49845886 55.54730225 C30.86121179 66.05970811 35.14769732 76.60352625 39.44555664 87.14257812 C39.882146 88.21280212 40.31873535 89.28302612 40.76855469 90.38568115 C44.77109426 100.19725072 48.77178176 110.00956895 52.76196289 119.82617188 C56.99500278 130.2387264 61.24928687 140.64127685 65.57055664 151.01757812 C65.97790039 151.99855469 66.38524414 152.97953125 66.80493164 153.99023438 C68.75641957 158.6763316 70.73705575 163.34558563 72.78540039 167.99023438 C73.16092041 168.85132813 73.53644043 169.71242187 73.92333984 170.59960938 C74.62067488 172.19423552 75.32804982 173.78452895 76.04785156 175.36914062 C78.02692292 179.91631109 78.87109209 183.4620314 78.38305664 188.51757812 C76.88305664 191.45507812 76.88305664 191.45507812 74.38305664 193.51757812 C68.98068197 194.46084989 68.98068197 194.46084989 66.38305664 193.51757812 C62.31104559 189.20945471 60.03466525 185.07894518 57.88696289 179.59570312 C57.57672684 178.83042297 57.26649078 178.06514282 56.94685364 177.27667236 C55.9362687 174.77759674 54.9409884 172.27272328 53.94555664 169.76757812 C53.24245007 168.02166872 52.53817046 166.2762313 51.83276367 164.53125 C50.38735376 160.95354658 48.94685267 157.37392482 47.50952148 153.79296875 C44.3134595 145.84545341 41.03273315 137.93293068 37.75805664 130.01757812 C33.56632734 119.87699942 29.43849285 109.71347966 25.38305664 99.51757812 C22.24334978 106.49752376 19.23440309 113.52913564 16.25805664 120.58007812 C15.77578613 121.72130127 15.29351562 122.86252441 14.79663086 124.03833008 C11.68109601 131.41924121 8.5868537 138.8087788 5.50805664 146.20507812 C5.11199219 147.15358643 4.71592773 148.10209473 4.30786133 149.0793457 C2.14851568 154.25487284 0.00472896 159.43623186 -2.11520386 164.62800598 C-3.28009575 167.47596777 -4.45311768 170.32054403 -5.6272583 173.16470337 C-6.19905304 174.55528218 -6.76727274 175.94733694 -7.33172607 177.34091187 C-8.12337123 179.29433003 -8.92738293 181.24223299 -9.73413086 183.18945312 C-10.19416504 184.31448242 -10.65419922 185.43951172 -11.12817383 186.59863281 C-12.63654289 189.55600581 -14.08873687 191.38862895 -16.61694336 193.51757812 C-19.36353912 194.24714262 -21.83895024 194.06976118 -24.61694336 193.51757812 C-27.11694336 191.95507813 -27.11694336 191.95507813 -28.61694336 189.51757812 C-29.63736595 182.31574947 -26.43360317 176.45246382 -23.61694336 169.95507812 C-23.07853859 168.68785235 -22.54138197 167.42009567 -22.00537109 166.15185547 C-20.84165432 163.40336146 -19.67095364 160.65798573 -18.49536133 157.91455078 C-16.54900259 153.36718031 -14.62952553 148.80872754 -12.71459961 144.24804688 C-12.04550366 142.65494282 -11.37639551 141.0618439 -10.70727539 139.46875 C-10.37326721 138.673479 -10.03925903 137.87820801 -9.69512939 137.05883789 C-8.00457639 133.03710768 -6.30863907 129.01765035 -4.61303711 124.99804688 C-1.09825841 116.66384156 2.40785386 108.32602632 5.90652466 99.98504639 C6.46809844 98.64630988 7.02984186 97.30764451 7.59176636 95.96905518 C8.36377346 94.12994168 9.13514867 92.29056297 9.90649414 90.45117188 C10.55497314 88.90514282 10.55497314 88.90514282 11.21655273 87.32788086 C11.60149902 86.40048096 11.98644531 85.47308105 12.38305664 84.51757812 C12.95467529 83.28213257 12.95467529 83.28213257 13.5378418 82.02172852 C15.58361191 75.96064706 13.79838651 71.22749606 11.42602539 65.55664062 C10.97058098 64.43254288 10.97058098 64.43254288 10.50593567 63.28573608 C9.53719151 60.90058383 8.5543256 58.52156733 7.57055664 56.14257812 C6.60077981 53.76948854 5.63391145 51.39522901 4.66731262 49.02084351 C4.06658535 47.54830227 3.4634637 46.07673457 2.85746765 44.60635376 C0.93872049 39.94242409 -0.86624356 35.24728329 -2.61694336 30.51757812 C-4.38790365 33.17401856 -5.60196483 35.57619099 -6.87475586 38.48632812 C-7.32689453 39.51363037 -7.7790332 40.54093262 -8.24487305 41.59936523 C-8.73890625 42.72737549 -9.23293945 43.85538574 -9.74194336 45.01757812 C-14.52817716 55.87181031 -19.41557022 66.67525378 -24.36694336 77.45507812 C-30.20974263 90.18286973 -35.94472539 102.95446506 -41.60980225 115.76226807 C-46.98034337 127.8993807 -52.45884338 139.98365511 -58.00915527 152.0395813 C-62.69153907 162.21090502 -67.26571266 172.41258683 -71.5246582 182.77075195 C-74.89657892 190.77390254 -74.89657892 190.77390254 -78.61694336 193.51757812 C-83.02462473 194.23883508 -84.87631824 194.03759151 -88.55444336 191.45507812 C-91.17725821 187.71955394 -91.01410702 186.02995945 -90.61694336 181.51757812 C-89.75905659 178.78510951 -88.56942066 176.26289194 -87.32006836 173.68945312 C-86.97518372 172.95115768 -86.63029907 172.21286224 -86.27496338 171.45219421 C-85.15077854 169.05156044 -84.00878163 166.65985795 -82.86694336 164.26757812 C-81.6890412 161.7611569 -80.51591692 159.25253263 -79.34277344 156.74388123 C-78.55643652 155.06358272 -77.76851116 153.38402667 -76.97900391 151.70521545 C-73.5914237 144.49795395 -70.32851815 137.24240999 -67.11694336 129.95507812 C-66.16782139 127.80789992 -65.2186058 125.66076311 -64.26928711 123.51367188 C-63.82568848 122.50933105 -63.38208984 121.50499023 -62.92504883 120.47021484 C-60.86101311 115.81130331 -58.77240746 111.16355185 -56.67944336 106.51757812 C-56.16704102 105.37953735 -56.16704102 105.37953735 -55.64428711 104.21850586 C-54.27854979 101.1889483 -52.91058699 98.16053368 -51.5300293 95.13769531 C-48.94347885 89.47222531 -46.39825157 83.78945904 -43.87475586 78.09570312 C-43.5403801 77.34140015 -43.20600433 76.58709717 -42.86149597 75.80993652 C-41.47548289 72.68230332 -40.08993901 69.55446503 -38.70629883 66.42578125 C-34.94905563 57.93238261 -31.15265584 49.46432648 -27.19819641 41.06077576 C-25.07573534 36.53712601 -23.03021911 31.98289143 -21.01147461 27.41210938 C-20.41456223 26.06636507 -19.81755731 24.72066181 -19.22045898 23.375 C-18.3142303 21.3319608 -17.41096981 19.28782538 -16.515625 17.23999023 C-15.62687704 15.21016314 -14.72652659 13.18582906 -13.82397461 11.16210938 C-13.30295166 9.97979736 -12.78192871 8.79748535 -12.24511719 7.5793457 C-9.09860682 1.66235867 -6.74505862 0.01812872 0 0 Z " fill="#3D464C" transform="translate(170.616943359375,9.482421875)"/>
<path d="M0 0 C0.76139746 -0.00850552 1.52279493 -0.01701104 2.30726504 -0.0257743 C4.86089169 -0.04807537 7.4130653 -0.03459869 9.96673584 -0.02119446 C11.79669744 -0.02960616 13.62665038 -0.04013062 15.45658875 -0.0526123 C20.430024 -0.07971361 25.40295868 -0.07494455 30.37643528 -0.06291175 C34.52889885 -0.05578767 38.68126941 -0.06427521 42.83372569 -0.07281715 C52.63286734 -0.09278721 62.43176515 -0.08718227 72.230896 -0.06513977 C82.33529991 -0.04279649 92.43906427 -0.06034588 102.54340768 -0.09818906 C111.2204488 -0.12944363 119.89729215 -0.13733202 128.57438254 -0.12623531 C133.75584378 -0.11975152 138.93693631 -0.12173415 144.1183548 -0.14555931 C148.99415997 -0.16683599 153.86906523 -0.15880138 158.74481392 -0.12846565 C160.53138921 -0.12214567 162.31803458 -0.12598119 164.10455894 -0.14087677 C180.43674026 -0.26597864 180.43674026 -0.26597864 186.14013481 5.18522358 C186.58016901 5.66584342 187.02020321 6.14646326 187.47357178 6.64164734 C188.20559814 7.21834167 188.93762451 7.79503601 189.6918335 8.38920593 C190.256604 8.85149597 190.82137451 9.31378601 191.40325928 9.79008484 C192.04779053 10.31602234 192.69232178 10.84195984 193.35638428 11.38383484 C194.01380615 11.92266296 194.67122803 12.46149109 195.34857178 13.01664734 C196.76239981 14.17058051 198.17646142 15.32422755 199.59075928 16.47758484 C200.26332764 17.0264032 200.935896 17.57522156 201.62884521 18.14067078 C203.89947058 19.98818331 206.18396633 21.81772435 208.47357178 23.64164734 C214.80277284 28.69019067 221.07500778 33.80890533 227.35491943 38.91850281 C230.15002904 41.19182427 232.94711291 43.46270902 235.74432373 45.73344421 C237.74616516 47.35923723 239.74666558 48.98666838 241.74700928 50.61430359 C244.12159791 52.54587195 246.50158358 54.4703539 248.88763428 56.38774109 C250.38423584 57.59623718 250.38423584 57.59623718 251.91107178 58.82914734 C252.77603271 59.52395203 253.64099365 60.21875671 254.53216553 60.93461609 C256.66043793 62.80595419 257.41010266 63.73430199 257.60779285 66.56045246 C257.61420308 67.74258965 257.61420308 67.74258965 257.6207428 68.9486084 C257.63147575 70.30498665 257.63147575 70.30498665 257.64242554 71.68876648 C257.64511444 72.68360046 257.64780334 73.67843445 257.65057373 74.70341492 C257.65714493 75.74906113 257.66371613 76.79470734 257.67048645 77.87203979 C257.69024901 81.34342006 257.70188816 84.81475702 257.71185303 88.28617859 C257.71592855 89.46962042 257.72000408 90.65306225 257.72420311 91.87236595 C257.74507567 98.13505759 257.75937272 104.39772724 257.76873779 110.66044617 C257.77980952 117.13720568 257.81421525 123.61362232 257.85390949 130.09026051 C257.88002252 135.06334076 257.88842488 140.03633864 257.89201927 145.00948143 C257.89689834 147.39733384 257.90854959 149.78518225 257.92705727 152.17296791 C257.95133677 155.51282246 257.95050387 158.85178086 257.94354248 162.19169617 C257.96275757 163.6748381 257.96275757 163.6748381 257.98236084 165.1879425 C257.94945031 169.51377926 257.90881012 171.94468969 255.57676697 175.67904663 C253.4581513 177.65603699 251.33744315 179.50472052 249.03607178 181.26664734 C244.95624076 184.45251538 240.97401902 187.7215598 237.03607178 191.07914734 C230.3674615 196.75190401 223.59532332 202.29121772 216.80169678 207.81352234 C211.79463502 211.89442239 206.83194742 216.02017966 201.91107178 220.20414734 C182.09060433 237.02842957 182.09060433 237.02842957 174.34544373 236.98654175 C172.49715469 236.98800705 172.49715469 236.98800705 170.61152649 236.98950195 C169.25393456 236.97557059 167.89634488 236.96141829 166.53875732 236.94706726 C165.10274581 236.94298468 163.6667296 236.94033578 162.23071289 236.93901062 C159.14226652 236.93380038 156.05402615 236.91984702 152.96564293 236.89951134 C148.07767533 236.8687881 143.18994395 236.86618786 138.30189514 236.86901855 C124.40363932 236.87333337 110.50567299 236.84994789 96.60760498 236.77568054 C88.92852512 236.7348855 81.24994267 236.72273303 73.57077247 236.74191743 C68.7159557 236.75245775 63.86299386 236.7280111 59.008448 236.67754495 C55.98135607 236.6545792 52.95506269 236.6652409 49.92797852 236.68526459 C48.5299781 236.68788176 47.13187236 236.6769268 45.73410988 236.65100288 C37.93304826 236.40790997 37.93304826 236.40790997 30.94944191 239.36771584 C28.94806177 241.36312487 27.22897345 243.43117575 25.47357178 245.64164734 C24.20677187 246.79457656 22.9177948 247.92409144 21.59857178 249.01664734 C17.33399919 252.66353382 13.46478719 256.66005982 9.57513428 260.70024109 C7.47357178 262.64164734 7.47357178 262.64164734 5.47357178 262.64164734 C5.47357178 288.71164734 5.47357178 314.78164734 5.47357178 341.64164734 C19.33357178 341.64164734 33.19357178 341.64164734 47.47357178 341.64164734 C47.41556396 336.06903015 47.35755615 330.49641296 47.29779053 324.75492859 C47.27224049 321.22299841 47.2481709 317.69118229 47.22943115 314.15922546 C47.19954973 308.55392269 47.16421376 302.94902856 47.09637451 297.34403992 C47.04201833 292.82472445 47.01214366 288.30584723 46.99918556 283.78623009 C46.9899521 282.06260975 46.97192088 280.3390132 46.94492149 278.61557961 C46.9085815 276.19967085 46.90362824 273.78556896 46.90594482 271.36943054 C46.88796844 270.65804932 46.86999207 269.94666809 46.85147095 269.21372986 C46.89122825 265.3777178 47.3890241 263.74908424 49.79029846 260.69772339 C52.47357178 258.64164734 52.47357178 258.64164734 55.97357178 258.01664734 C60.47292648 258.82010354 61.69376913 260.0441266 64.47357178 263.64164734 C64.95781544 266.71670399 65.1392787 269.23120021 65.08880615 272.29985046 C65.09435516 273.16061691 65.09990417 274.02138336 65.10562134 274.90823364 C65.11741006 277.74702527 65.09315072 280.5842179 65.06732178 283.42289734 C65.0656104 285.39917427 65.06567664 287.37545347 65.06744385 289.35173035 C65.06579104 293.49107111 65.04710009 297.62987002 65.01556396 301.76908875 C64.97588666 307.07211367 64.97151901 312.37442896 64.97902679 317.67757416 C64.9820979 321.75770049 64.96997093 325.83766759 64.95289612 329.91775513 C64.94587014 331.87295533 64.9427411 333.82817358 64.94358826 335.78338623 C64.94178838 338.51706996 64.92039039 341.24990708 64.89349365 343.98344421 C64.89642426 344.78982834 64.89935486 345.59621246 64.90237427 346.42703247 C64.83315948 350.9916773 64.3357788 354.02285784 61.47357178 357.64164734 C58.68443719 359.03621463 56.37192307 358.7920752 53.25140381 358.81864929 C51.94309601 358.83148453 50.63478821 358.84431976 49.28683472 358.85754395 C47.85168841 358.86571061 46.41653783 358.87315448 44.98138428 358.87992859 C43.89940073 358.88604188 43.89940073 358.88604188 42.79555893 358.89227867 C38.97843461 358.91313751 35.16134623 358.92744056 31.34417725 358.93681335 C27.40068635 358.94788373 23.45775883 358.98229054 19.51446724 359.02198505 C16.48270616 359.04812189 13.45107999 359.05650247 10.41921616 359.06009483 C8.96553615 359.06496766 7.51186244 359.0766016 6.05829239 359.09513283 C4.02384254 359.11945937 1.98911905 359.11614587 -0.04547119 359.11161804 C-1.20303925 359.11748428 -2.3606073 359.12335052 -3.55325317 359.12939453 C-7.15941993 358.53780551 -8.29132606 357.46765584 -10.52642822 354.64164734 C-12.20212068 351.29026242 -11.71960936 347.50866204 -11.7510376 343.82084656 C-11.76242767 342.90681564 -11.77381775 341.99278473 -11.78555298 341.05105591 C-11.89625266 331.48174474 -11.94364559 321.91165932 -11.98638916 312.34184265 C-12.0086561 307.80206967 -12.05041112 303.26311979 -12.10943604 298.72367859 C-12.1805698 293.2423666 -12.21722849 287.76182876 -12.22950745 282.28007889 C-12.23990135 280.19328014 -12.2623096 278.10650448 -12.29710388 276.01996994 C-12.34339825 273.09200566 -12.34530011 270.16706551 -12.3369751 267.23881531 C-12.36057098 266.38239944 -12.38416687 265.52598358 -12.40847778 264.64361572 C-12.32536628 258.58021914 -10.48506503 255.59507284 -6.28553009 251.26786995 C-4.12035426 249.26624744 -1.87014731 247.43027506 0.47357178 245.64164734 C3.17171362 242.99476553 5.81294589 240.29433876 8.45404053 237.59086609 C9.52298385 236.50356054 10.59199524 235.41632191 11.66107178 234.32914734 C12.43160889 233.53347351 12.43160889 233.53347351 13.2177124 232.72172546 C14.9326613 230.98598931 16.70047646 229.31799899 18.47357178 227.64164734 C19.4799672 226.62302722 19.4799672 226.62302722 20.50669384 225.58382893 C27.64949091 219.0071914 33.58996236 218.55192714 42.98846436 218.81620789 C44.42693456 218.82663126 45.86543567 218.83334168 47.30393982 218.83665466 C50.38418296 218.85081976 53.4627853 218.88932369 56.54252052 218.94682884 C61.42389018 219.03620152 66.30429711 219.06034443 71.18638611 219.07446289 C83.31042193 219.11925349 95.43349647 219.24278608 107.55664062 219.39421082 C116.98465327 219.51143425 126.41145016 219.60389431 135.84024733 219.62029105 C139.89327414 219.62962475 143.94352289 219.66098481 147.99573708 219.74535179 C167.67171526 221.13095397 167.67171526 221.13095397 184.71453857 213.35575867 C186.34987928 211.49295277 187.94163719 209.59038063 189.47357178 207.64164734 C191.25043981 206.11986211 193.05898895 204.63344069 194.91107178 203.20414734 C199.10181663 199.79688956 203.20264791 196.30050947 207.28607178 192.76664734 C212.49103758 188.27054014 217.79766317 183.93904705 223.24041748 179.7339325 C224.30716039 178.90866988 225.36010553 178.06528466 226.39900208 177.20523071 C228.47357178 175.64164734 228.47357178 175.64164734 231.17819214 174.14639282 C235.25030294 171.57442924 238.6494213 169.23497434 240.13836861 164.54975319 C241.26889857 158.16453849 241.14242216 151.68299277 241.11029053 145.21977234 C241.13042891 143.1114099 241.15307959 141.0030701 241.17811584 138.89476013 C241.21680774 134.4827708 241.21339241 130.07320624 241.18231201 125.66117859 C241.14768508 120.03496212 241.23544838 114.41830136 241.35760784 108.79358292 C241.43531322 104.43984809 241.43805972 100.08837236 241.41993141 95.73407745 C241.4218181 93.66249396 241.44848077 91.59076584 241.50147057 89.51985931 C241.98184044 78.46895279 241.98184044 78.46895279 237.92459488 68.53118896 C234.20811409 64.71633209 230.01982021 61.76755121 225.51673317 58.95522308 C222.28949913 56.88039122 219.33670078 54.47933353 216.34857178 52.07914734 C215.20748648 51.18614357 214.06566038 50.29408484 212.92279053 49.40336609 C208.63565381 46.0076991 204.51116184 42.42734086 200.37811279 38.84721375 C196.6104274 35.59095231 192.79932585 32.43699145 188.78737354 29.48202419 C186.47357178 27.64164734 186.47357178 27.64164734 184.23871136 25.38855839 C176.18398113 17.64849317 169.13659754 17.36656924 158.61932373 17.52812195 C156.94282444 17.52078514 155.26633855 17.5094953 153.58988953 17.49458313 C149.06937815 17.46544304 144.55069128 17.49114478 140.03029275 17.5271728 C135.29501572 17.5554293 130.55998217 17.53259096 125.82469177 17.51531982 C116.87164134 17.49035309 107.91930575 17.51091482 98.96632117 17.54809338 C88.76788355 17.58820776 78.56969822 17.57717296 68.37121642 17.56197727 C47.40512109 17.53187674 26.43953317 17.5655689 5.47357178 17.64164734 C5.47633716 18.58017138 5.47910254 19.51869543 5.48195171 20.4856596 C5.54852093 43.31151769 5.59783506 66.13736321 5.62900829 88.96329784 C5.64448374 100.00170527 5.66558623 111.04004862 5.69989014 122.07841492 C5.72977171 131.69833506 5.74914185 141.3182088 5.75583726 150.93817407 C5.75975161 156.03288887 5.76896503 161.12747089 5.79076195 166.22214317 C5.81110744 171.01635989 5.81740948 175.81038899 5.81289482 180.60464478 C5.81372089 182.36508007 5.81969806 184.12552158 5.8311882 185.88591957 C5.84610215 188.28850649 5.84252963 190.69038391 5.83433533 193.09298706 C5.84307385 193.79046639 5.85181238 194.48794572 5.8608157 195.20656079 C5.81028507 200.6834693 4.30058879 203.81463033 0.47357178 207.64164734 C-3.19265119 207.98111243 -5.63965694 208.13170515 -8.90142822 206.32914734 C-12.29182361 202.80835213 -11.67472282 198.44732794 -11.67359924 193.87361145 C-11.67727593 193.07419974 -11.68095262 192.27478803 -11.68474072 191.45115173 C-11.69578327 188.76350449 -11.69962233 186.07589591 -11.70343018 183.38822937 C-11.70969427 181.46488827 -11.71634102 179.54154839 -11.7233429 177.61820984 C-11.74075466 172.38681786 -11.75130462 167.15543502 -11.75954843 161.92402124 C-11.76469703 158.6573575 -11.77077275 155.39069661 -11.77705956 152.12403488 C-11.79611006 141.90824019 -11.81034286 131.69245273 -11.81867152 121.47664368 C-11.82845173 109.6746934 -11.85479233 97.87293029 -11.89517242 86.07104599 C-11.9252982 76.95420835 -11.94013694 67.83742448 -11.94345254 58.72053802 C-11.94580658 53.2726085 -11.95481338 47.82487896 -11.97991371 42.37700272 C-12.00313828 37.2535668 -12.00745031 32.13046337 -11.99715233 27.00698853 C-11.99665553 25.12560802 -12.00301824 23.24421146 -12.01670837 21.36288071 C-12.03434317 18.79606919 -12.02736324 16.23046187 -12.01417542 13.66365051 C-12.02514466 12.91763521 -12.03611391 12.17161991 -12.04741555 11.40299809 C-12.00495762 7.98469452 -11.56679927 5.71827768 -9.96634579 2.6803751 C-6.72058718 -0.03169119 -4.05093258 -0.05970352 0 0 Z " fill="#3E474E" transform="translate(419.52642822265625,9.358352661132813)"/>
<path d="M0 0 C21.40027805 -0.4411969 21.40027805 -0.4411969 30.59765625 -0.53710938 C36.84822673 -0.60260327 43.09700721 -0.67964987 49.34619141 -0.82983398 C54.39089259 -0.95029774 59.43367243 -1.01531795 64.479702 -1.04364967 C66.39428809 -1.06380982 68.30878147 -1.10317825 70.22253799 -1.16303062 C82.38549051 -1.52792539 90.06289899 -0.35580815 99.11911011 8.14933777 C99.59773876 8.62369452 100.07636742 9.09805126 100.56949997 9.58678246 C102.01092527 11.01079327 103.49841879 12.35826589 105.01907349 13.69697571 C106.63555753 15.12094914 108.23672595 16.56264885 109.81640625 18.02734375 C111.95557429 20.08707823 111.95557429 20.08707823 114.60595703 21.56567383 C117.63518184 24.64586968 117.56850232 26.22505047 117.56648254 30.39935303 C117.54067612 31.23178528 117.51486969 32.06421753 117.48828125 32.921875 C117.48120651 33.78186096 117.47413177 34.64184692 117.46684265 35.52789307 C117.43889611 38.2694875 117.3761598 41.009025 117.3125 43.75 C117.28741734 45.61064755 117.26460411 47.47132717 117.24414062 49.33203125 C117.18906887 53.88881106 117.10279655 58.44405704 117 63 C116.34 63 115.68 63 115 63 C115 63.66 115 64.32 115 65 C113.3046875 66.5234375 113.3046875 66.5234375 110.875 68.375 C105.65195439 72.43820024 100.63796206 76.70491664 95.64794922 81.05029297 C90.30895615 85.67382804 87.5207085 86.1436711 80.60302734 86.11352539 C79.30048759 86.11374443 79.30048759 86.11374443 77.97163391 86.1139679 C75.09304328 86.11326961 72.21451686 86.1054811 69.3359375 86.09765625 C67.34339432 86.09579177 65.35085069 86.09436801 63.35830688 86.09336853 C58.10740906 86.08954569 52.85653878 86.07971737 47.60565186 86.06866455 C41.30894541 86.05664952 35.01222976 86.05204708 28.71551514 86.04621124 C19.14365758 86.03650551 9.5718605 86.01734731 0 86 C0 57.62 0 29.24 0 0 Z " fill="#F7F8F7" transform="translate(484,85)"/>
<path d="M0 0 C1.01039841 -0.01197418 2.02079681 -0.02394836 3.06181335 -0.0362854 C6.40064793 -0.06847464 9.73818474 -0.06365093 13.07714844 -0.05566406 C15.40257211 -0.06411359 17.72799173 -0.07375398 20.05340576 -0.08453369 C24.92914708 -0.1009332 29.80443448 -0.09820804 34.68017578 -0.08300781 C40.9159292 -0.06574972 47.1499945 -0.10281142 53.38550186 -0.15526962 C58.1898423 -0.18842341 62.99377992 -0.18893891 67.79821014 -0.18012238 C70.0962373 -0.18048148 72.39429031 -0.1917252 74.69220734 -0.21422577 C77.91437068 -0.24158052 81.13338035 -0.22398504 84.35546875 -0.1953125 C85.29708359 -0.21262421 86.23869843 -0.22993591 87.20884705 -0.24777222 C94.65654947 -0.10656394 98.55983637 2.72328792 103.93652344 7.67871094 C105.06804756 8.63127073 106.20266736 9.58018967 107.34277344 10.52246094 C108.37524105 11.40645747 109.40649513 12.29187334 110.43652344 13.17871094 C114.14648348 16.34832252 117.87560787 19.45842335 121.74902344 22.42871094 C124.67768156 24.68194053 127.55501834 26.97662418 130.37402344 29.36621094 C131.01210938 29.90632813 131.65019531 30.44644531 132.30761719 31.00292969 C135.40205148 34.18641245 136.18664595 37.06747589 136.22705078 41.44384766 C136.23981049 42.38517548 136.25257019 43.3265033 136.26571655 44.2963562 C136.2679422 45.30683014 136.27016785 46.31730408 136.27246094 47.35839844 C136.28244614 48.92667892 136.28244614 48.92667892 136.29263306 50.52664185 C136.30275321 52.73730715 136.30745027 54.94800296 136.30712891 57.15869141 C136.3114984 60.5343685 136.34781583 63.90873419 136.38574219 67.28417969 C136.39161124 69.43391481 136.39558004 71.58365613 136.39746094 73.73339844 C136.41183197 74.73982391 136.426203 75.74624939 136.44100952 76.78317261 C136.39259405 84.23939308 134.98878584 87.5611595 129.74511719 92.91699219 C128.96265625 93.60148437 128.18019531 94.28597656 127.37402344 94.99121094 C126.49230469 95.76335937 125.61058594 96.53550781 124.70214844 97.33105469 C121.13578266 100.3584358 117.5254098 103.32591539 113.88574219 106.26464844 C111.71828651 108.03880421 109.57963905 109.83005355 107.45605469 111.65527344 C106.87057861 112.15752441 106.28510254 112.65977539 105.68188477 113.17724609 C104.53922933 114.16022706 103.39961299 115.14675457 102.26342773 116.13720703 C98.36920331 119.48097056 95.72085892 120.79355657 90.62319946 120.83934021 C89.74281509 120.84938583 88.86243073 120.85943146 87.95536804 120.86978149 C86.5105883 120.87852798 86.5105883 120.87852798 85.03662109 120.88745117 C84.02008957 120.89723495 83.00355804 120.90701874 81.95622253 120.917099 C78.58769036 120.94704813 75.21919775 120.96843415 71.85058594 120.98730469 C70.70115887 120.99387651 69.5517318 121.00044834 68.3674736 121.00721931 C62.28633606 121.03980678 56.20521604 121.06426223 50.12402344 121.08374023 C45.08567947 121.10157522 40.04789286 121.13643239 35.00976562 121.1862793 C28.93083357 121.24635628 22.85241961 121.27719848 16.7732048 121.28691292 C14.45509184 121.29548783 12.13699347 121.31435557 9.81904984 121.34365654 C6.57715277 121.38243906 3.33728759 121.38362262 0.09521484 121.37573242 C-0.86392319 121.39573303 -1.82306122 121.41573364 -2.81126404 121.43634033 C-7.39113041 121.38623637 -9.4416889 121.15705206 -13.15795898 118.29812622 C-16.06725459 113.94167528 -15.76226098 109.13800302 -15.71044922 104.07104492 C-15.71921082 103.01506104 -15.72797241 101.95907715 -15.73699951 100.87109375 C-15.75896505 97.38857664 -15.7444507 93.90733419 -15.72753906 90.42480469 C-15.73090773 88.00154883 -15.73576077 85.57829463 -15.74203491 83.15504456 C-15.74940223 78.08016855 -15.73870357 73.00573297 -15.71533203 67.9309082 C-15.68683002 61.4249162 -15.70325948 54.9199548 -15.73319435 48.41400051 C-15.75125761 43.41168952 -15.74551382 38.4096231 -15.73255539 33.40730476 C-15.72921952 31.00831035 -15.73331474 28.60929374 -15.74495316 26.21032524 C-15.75764667 22.858612 -15.73830388 19.50857103 -15.71044922 16.15698242 C-15.72057037 15.16515457 -15.73069153 14.17332672 -15.74111938 13.15144348 C-15.67424403 8.80975214 -15.45785134 6.32087724 -13.15200806 2.5662384 C-8.74363938 -0.12789535 -5.08041723 -0.03733402 0 0 Z M1.93652344 17.67871094 C1.93652344 46.05871094 1.93652344 74.43871094 1.93652344 103.67871094 C17.48618223 103.94078828 17.48618223 103.94078828 33.03613281 104.11816406 C39.38537877 104.17182466 45.73344905 104.23507759 52.08178711 104.35766602 C57.20421343 104.45595486 62.32537814 104.50937216 67.44867516 104.53260612 C69.39633723 104.54914775 71.34393555 104.58145108 73.29105568 104.63028145 C86.28728697 105.09855214 86.28728697 105.09855214 97.47998047 99.3269043 C98.99897617 97.81031656 100.48896422 96.2636269 101.93652344 94.67871094 C103.202787 93.5763827 104.48189817 92.48824565 105.78417969 91.42871094 C107.41742878 90.03433181 109.04785477 88.63675806 110.67675781 87.23730469 C114.72436229 83.78479151 114.72436229 83.78479151 116.93652344 82.67871094 C116.93652344 82.01871094 116.93652344 81.35871094 116.93652344 80.67871094 C117.59652344 80.67871094 118.25652344 80.67871094 118.93652344 80.67871094 C121.94853802 57.63977085 121.94853802 57.63977085 115.98339844 36.51074219 C112.98061474 33.64816475 109.60927413 31.60608543 105.91650391 29.74365234 C102.7905652 28.06235214 100.35695014 25.82469789 97.68652344 23.49121094 C92.054755 18.89193338 88.80345693 17.38714953 81.51782227 17.45166016 C80.22969383 17.45122208 80.22969383 17.45122208 78.9155426 17.45077515 C76.07477747 17.45216939 73.23427405 17.46773504 70.39355469 17.48339844 C68.42486209 17.48712823 66.45616765 17.48997536 64.48747253 17.49197388 C59.30395388 17.49961297 54.12054716 17.51926387 48.93707275 17.54138184 C42.71878625 17.56542973 36.50046233 17.57461993 30.28214264 17.58628845 C20.83352503 17.60568807 11.38515308 17.64400877 1.93652344 17.67871094 Z " fill="#3C464C" transform="translate(482.0634765625,67.3212890625)"/>
<path d="M0 0 C1.09688039 -0.00573832 1.09688039 -0.00573832 2.21591997 -0.01159257 C4.67880873 -0.02195373 7.14146572 -0.0179246 9.60437012 -0.01396179 C11.36494667 -0.01830652 13.12552132 -0.02348886 14.88609314 -0.02944946 C19.6772997 -0.04287565 24.46842756 -0.04341419 29.25964928 -0.04088616 C33.25349012 -0.03981903 37.24731487 -0.04469313 41.24115229 -0.04949158 C50.65927482 -0.06059902 60.07735748 -0.06101706 69.4954834 -0.05497742 C79.22601948 -0.04893361 88.95641112 -0.06125614 98.68692255 -0.08254749 C107.02918501 -0.10013302 115.37140137 -0.10616973 123.7136817 -0.10290974 C128.70150012 -0.10109206 133.68921549 -0.10378119 138.67701721 -0.11762428 C143.36539808 -0.13014879 148.05355283 -0.12830988 152.74193001 -0.11521339 C154.4665287 -0.11283637 156.19114304 -0.11562224 157.9157238 -0.12383652 C160.26236077 -0.13421119 162.60822582 -0.12627934 164.95483398 -0.11352539 C166.27040031 -0.11369313 167.58596664 -0.11386087 168.94139862 -0.1140337 C169.94328468 0.00962724 170.94517075 0.13328817 171.97741699 0.26069641 C172.96741699 1.74569641 172.96741699 1.74569641 173.97741699 3.26069641 C170.24128918 4.44514203 166.69061795 4.38937721 162.79025269 4.39440918 C161.70305968 4.39780751 161.70305968 4.39780751 160.59390318 4.4012745 C158.16492154 4.40760543 155.73599582 4.40678573 153.30700684 4.40596008 C151.56584094 4.40895203 149.82467571 4.41235464 148.08351135 4.4161377 C143.35442236 4.42497559 138.62535146 4.42731565 133.89625502 4.42795348 C129.95202493 4.42890247 126.00779908 4.43258044 122.06357062 4.43612558 C112.76336619 4.44426839 103.46317145 4.44670987 94.16296387 4.44599915 C84.55625114 4.44539754 74.94959441 4.45596628 65.34289587 4.47174281 C57.10250978 4.48479527 48.86214206 4.49018405 40.62174571 4.48954374 C35.69657524 4.48928819 30.7714546 4.49217097 25.8462944 4.50272179 C21.21866954 4.51236491 16.59114254 4.51250816 11.96351433 4.50520515 C10.26148906 4.50415476 8.55945781 4.50654893 6.85744286 4.51256561 C4.54171616 4.52022432 2.22633272 4.51568197 -0.08938599 4.50793457 C-1.38760599 4.50847934 -2.685826 4.50902411 -4.023386 4.50958538 C-7.02258301 4.26069641 -7.02258301 4.26069641 -9.02258301 2.26069641 C-6.12874463 -0.63314196 -4.05423781 0.00632642 0 0 Z " fill="#333D44" transform="translate(77.0225830078125,228.7393035888672)"/>
<path d="M0 0 C0.75888519 -0.00095673 1.51777039 -0.00191345 2.2996521 -0.00289917 C3.8947559 -0.00357634 5.48986252 -0.00175452 7.08496094 0.00244141 C9.5228493 0.0078112 11.9605547 0.00247307 14.3984375 -0.00390625 C15.9531254 -0.00324568 17.5078132 -0.00196495 19.0625 0 C20.15167221 -0.00303635 20.15167221 -0.00303635 21.2628479 -0.00613403 C24.66317339 0.00960379 27.62145119 0.30035555 30.8984375 1.1328125 C33.33973354 1.22692705 35.78345393 1.2635225 38.2265625 1.265625 C38.9343988 1.26658173 39.64223511 1.26753845 40.371521 1.26852417 C41.867636 1.26920338 43.36375398 1.26736716 44.85986328 1.26318359 C47.12669674 1.25786352 49.39332918 1.26312082 51.66015625 1.26953125 C53.1197921 1.2688698 54.57942782 1.26758726 56.0390625 1.265625 C58.01181152 1.26393311 58.01181152 1.26393311 60.02441406 1.26220703 C62.84653229 1.16794672 65.47533455 0.96856356 68.25927734 0.59765625 C71.53677862 0.17900856 72.88466397 0.234831 75.8984375 1.1328125 C78.10514164 1.22730613 80.31471655 1.26270989 82.5234375 1.2578125 C83.67070313 1.26039062 84.81796875 1.26296875 86 1.265625 C88.83869853 1.16891583 91.50798474 0.96296668 94.31542969 0.63061523 C100.5882461 -0.00993975 106.82494858 0.0074431 113.125 0.03515625 C114.35382904 0.0365712 115.58265808 0.03798615 116.84872437 0.03944397 C120.74032108 0.04500291 124.63185843 0.0575477 128.5234375 0.0703125 C131.17578041 0.07533281 133.82812424 0.07989478 136.48046875 0.08398438 C142.95314496 0.09495886 149.42578699 0.11165566 155.8984375 0.1328125 C155.8984375 0.7928125 155.8984375 1.4528125 155.8984375 2.1328125 C156.8884375 2.6278125 156.8884375 2.6278125 157.8984375 3.1328125 C101.4684375 3.1328125 45.0384375 3.1328125 -13.1015625 3.1328125 C-13.4315625 2.4728125 -13.7615625 1.8128125 -14.1015625 1.1328125 C-9.37818239 0.2014548 -4.7975428 -0.01344937 0 0 Z " fill="#282F34" transform="translate(437.1015625,22.8671875)"/>
<path d="M0 0 C0.78503906 0.00773438 1.57007812 0.01546875 2.37890625 0.0234375 C3.16394531 0.01570312 3.94898437 0.00796875 4.7578125 0 C10.62559838 0.02012963 10.62559838 0.02012963 12.87890625 2.2734375 C15.10249099 2.5656315 15.10249099 2.5656315 17.69580078 2.50048828 C18.69668732 2.50033722 19.69757385 2.50018616 20.72879028 2.50003052 C21.81215668 2.48970795 22.89552307 2.47938538 24.01171875 2.46875 C25.1186911 2.4659201 26.22566345 2.46309021 27.36618042 2.46017456 C30.91219762 2.44895269 34.457965 2.42384441 38.00390625 2.3984375 C40.40364219 2.3884103 42.80338208 2.379284 45.203125 2.37109375 C51.09513776 2.34900682 56.98700416 2.31550957 62.87890625 2.2734375 C62.87890625 1.9434375 62.87890625 1.6134375 62.87890625 1.2734375 C69.50390625 0.1484375 69.50390625 0.1484375 72.87890625 1.2734375 C72.87890625 1.9334375 72.87890625 2.5934375 72.87890625 3.2734375 C74.19890625 3.2734375 75.51890625 3.2734375 76.87890625 3.2734375 C76.87890625 2.2834375 76.87890625 1.2934375 76.87890625 0.2734375 C87.10890625 0.2734375 97.33890625 0.2734375 107.87890625 0.2734375 C107.54890625 0.9334375 107.21890625 1.5934375 106.87890625 2.2734375 C112.15890625 2.2734375 117.43890625 2.2734375 122.87890625 2.2734375 C122.87890625 1.9434375 122.87890625 1.6134375 122.87890625 1.2734375 C128.15890625 1.2734375 133.43890625 1.2734375 138.87890625 1.2734375 C139.20890625 2.2634375 139.53890625 3.2534375 139.87890625 4.2734375 C84.76890625 4.2734375 29.65890625 4.2734375 -27.12109375 4.2734375 C-27.12109375 3.9434375 -27.12109375 3.6134375 -27.12109375 3.2734375 C-26.27345459 3.2437085 -26.27345459 3.2437085 -25.40869141 3.21337891 C-22.85401378 3.11825514 -20.30016834 3.00852692 -17.74609375 2.8984375 C-16.41191406 2.85203125 -16.41191406 2.85203125 -15.05078125 2.8046875 C-14.2 2.76601562 -13.34921875 2.72734375 -12.47265625 2.6875 C-11.29437256 2.64036865 -11.29437256 2.64036865 -10.09228516 2.59228516 C-6.34270753 1.98577681 -4.46002629 0.01530026 0 0 Z " fill="#323B3E" transform="translate(115.12109375,238.7265625)"/>
<path d="M0 0 C0.93650391 -0.00386719 1.87300781 -0.00773438 2.83789062 -0.01171875 C4.19237305 -0.00978516 4.19237305 -0.00978516 5.57421875 -0.0078125 C6.38850342 -0.00668457 7.20278809 -0.00555664 8.04174805 -0.00439453 C10.3125 0.125 10.3125 0.125 12.37426758 0.66064453 C15.4370445 1.39441474 18.24904973 0.65521255 21.3125 0.125 C21.8075 1.61 21.8075 1.61 22.3125 3.125 C54.3225 3.455 86.3325 3.785 119.3125 4.125 C119.3125 4.455 119.3125 4.785 119.3125 5.125 C70.8025 5.125 22.2925 5.125 -27.6875 5.125 C-27.6875 2.125 -27.6875 2.125 -26.6875 1.125 C-24.55436798 1.05175942 -22.43794487 1.12844789 -20.3046875 1.1875 C-17.58951575 1.18000283 -17.58951575 1.18000283 -14.55078125 0.6328125 C-9.67814337 -0.0076758 -4.90806657 -0.02052153 0 0 Z " fill="#363F46" transform="translate(481.6875,239.875)"/>
<path d="M0 0 C0.33 0 0.66 0 1 0 C1.75 2.75 1.75 2.75 2 6 C0.53167725 8.17474365 0.53167725 8.17474365 -2 10 C-4.8832673 10.37403548 -7.37806623 10.50714898 -10.25683594 10.45410156 C-11.50129234 10.45497772 -11.50129234 10.45497772 -12.77088928 10.45587158 C-15.50914563 10.45308808 -18.24630917 10.42198411 -20.984375 10.390625 C-22.88437302 10.38316354 -24.78437874 10.37747016 -26.68438721 10.37347412 C-31.68228446 10.35821028 -36.67971586 10.31892193 -41.6774292 10.2746582 C-46.77837828 10.23372172 -51.87940271 10.21546657 -56.98046875 10.1953125 C-66.98718371 10.15242847 -76.9935531 10.08416798 -87 10 C-87 9.67 -87 9.34 -87 9 C-85.97713898 8.99413376 -84.95427795 8.98826752 -83.90042114 8.98222351 C-74.27652976 8.92509294 -64.65286645 8.85238254 -55.02920723 8.76428509 C-50.08117413 8.71949388 -45.13322505 8.68025733 -40.18505859 8.65356445 C-35.41275866 8.62761842 -30.64078051 8.58727857 -25.86867905 8.53681374 C-24.0450019 8.52008589 -22.22126903 8.50860861 -20.39752579 8.50238609 C-17.84946945 8.49280893 -15.30224746 8.46482814 -12.75439453 8.43237305 C-11.99482452 8.43380814 -11.23525452 8.43524323 -10.45266724 8.4367218 C-8.13824067 8.42985367 -8.13824067 8.42985367 -5 8 C-4.34 7.01 -3.68 6.02 -3 5 C-2.34 5 -1.68 5 -1 5 C-0.67 3.35 -0.34 1.7 0 0 Z " fill="#474D51" transform="translate(398,358)"/>
<path d="M0 0 C0.33 0 0.66 0 1 0 C1 31.02 1 62.04 1 94 C2.485 93.505 2.485 93.505 4 93 C4 96 4 96 2 99 C0.40342782 96.17223198 -0.24908525 94.15422317 -0.24050903 90.91241455 C-0.24325836 90.10757126 -0.24600769 89.30272797 -0.24884033 88.47349548 C-0.24164978 87.59955643 -0.23445923 86.72561737 -0.22705078 85.82519531 C-0.22734283 84.898022 -0.22763489 83.97084869 -0.22793579 83.01557922 C-0.2265432 79.95299907 -0.21098518 76.89066263 -0.1953125 73.828125 C-0.19158212 71.70391981 -0.18873527 69.5797129 -0.18673706 67.45550537 C-0.17910257 61.86593878 -0.15945557 56.2764762 -0.1373291 50.68695068 C-0.11686677 44.98272102 -0.10773451 39.27847454 -0.09765625 33.57421875 C-0.07620958 22.38276681 -0.04207577 11.19139206 0 0 Z " fill="#4C5155" transform="translate(408,267)"/>
<path d="M0 0 C1.86147675 0.00022659 1.86147675 0.00022659 3.76055908 0.00045776 C5.10958009 0.01067017 6.45859945 0.02110215 7.80761719 0.03173828 C9.19195349 0.03547029 10.57629244 0.03831637 11.96063232 0.04031372 C15.59716129 0.04793544 19.23352949 0.06757123 22.86999512 0.08972168 C26.58355535 0.11021169 30.29714167 0.11932217 34.01074219 0.12939453 C41.29206533 0.15081863 48.5732562 0.18493677 55.85449219 0.22705078 C55.85449219 0.88705078 55.85449219 1.54705078 55.85449219 2.22705078 C56.84449219 2.72205078 56.84449219 2.72205078 57.85449219 3.22705078 C24.19449219 2.73205078 24.19449219 2.73205078 -10.14550781 2.22705078 C-6.05684951 0.18272163 -4.42951535 -0.01800616 0 0 Z " fill="#2F383F" transform="translate(537.1455078125,22.77294921875)"/>
<path d="M0 0 C10.23 0 20.46 0 31 0 C30 2 30 2 28.31738281 2.61889648 C25.48526147 3.08465095 22.79279114 3.11172937 19.921875 3.09765625 C18.76171875 3.09443359 17.6015625 3.09121094 16.40625 3.08789062 C15.1996875 3.07951172 13.993125 3.07113281 12.75 3.0625 C11.52796875 3.05798828 10.3059375 3.05347656 9.046875 3.04882812 C6.03120054 3.03704815 3.01562502 3.02059853 0 3 C0 2.01 0 1.02 0 0 Z " fill="#343F44" transform="translate(192,239)"/>
<path d="M0 0 C0.76837189 0.00141495 1.53674377 0.0028299 2.32839966 0.00428772 C4.76324489 0.00984942 7.19799544 0.02239465 9.6328125 0.03515625 C11.29166533 0.04017621 12.95051962 0.04473824 14.609375 0.04882812 C18.6588902 0.05980627 22.70833534 0.07704419 26.7578125 0.09765625 C27.2528125 1.08765625 27.2528125 1.08765625 27.7578125 2.09765625 C14.2278125 2.42765625 0.6978125 2.75765625 -13.2421875 3.09765625 C-13.5721875 2.43765625 -13.9021875 1.77765625 -14.2421875 1.09765625 C-9.46939852 0.149007 -4.84752773 -0.03405796 0 0 Z " fill="#2F383F" transform="translate(437.2421875,22.90234375)"/>
<path d="M0 0 C0.66 0.99 1.32 1.98 2 3 C1.67 3.99 1.34 4.98 1 6 C1.66 6 2.32 6 3 6 C2.53816182 10.15654359 2.11990898 12.21466571 -1 15 C-1.02685412 12.68756208 -1.04632841 10.3750373 -1.0625 8.0625 C-1.07410156 6.77472656 -1.08570313 5.48695313 -1.09765625 4.16015625 C-1 1 -1 1 0 0 Z " fill="#353E42" transform="translate(178,135)"/>
<path d="M0 0 C6.4 0.36923077 6.4 0.36923077 9.4375 3.5625 C9.953125 4.366875 10.46875 5.17125 11 6 C10.34 7.32 9.68 8.64 9 10 C8.71125 9.38125 8.4225 8.7625 8.125 8.125 C7.06279958 5.86674235 7.06279958 5.86674235 5 4 C5 3.67 5 3.34 5 3 C3.35 2.67 1.7 2.34 0 2 C0 1.34 0 0.68 0 0 Z " fill="#484F53" transform="translate(320,225)"/>
<path d="M0 0 C2.6855594 2.6855594 3.06049974 5.37621328 4 9 C2.35 9.33 0.7 9.66 -1 10 C-2.27351308 7.45297384 -1.80191925 6.5717055 -1.0625 3.875 C-0.86785156 3.15054688 -0.67320312 2.42609375 -0.47265625 1.6796875 C-0.31667969 1.12539062 -0.16070312 0.57109375 0 0 Z " fill="#474E55" transform="translate(277,109)"/>
<path d="M0 0 C0.66 0 1.32 0 2 0 C2.99 3.3 3.98 6.6 5 10 C4.01 10 3.02 10 2 10 C-1.125 3.375 -1.125 3.375 0 0 Z " fill="#4C5256" transform="translate(238,169)"/>
<path d="M0 0 C0.66 0 1.32 0 2 0 C2.99 3.3 3.98 6.6 5 10 C2.525 9.01 2.525 9.01 0 8 C-0.38063221 5.6739143 -0.71269945 3.33944736 -1 1 C-0.67 0.67 -0.34 0.34 0 0 Z " fill="#444C50" transform="translate(201,79)"/>
<path d="M0 0 C0.66 0 1.32 0 2 0 C2.52992692 1.45505358 3.0486789 2.91418127 3.5625 4.375 C3.85253906 5.18710937 4.14257812 5.99921875 4.44140625 6.8359375 C5 9 5 9 4 11 C3.34 11 2.68 11 2 11 C2 9.68 2 8.36 2 7 C1.34 6.67 0.68 6.34 0 6 C0 4.02 0 2.04 0 0 Z " fill="#454B4F" transform="translate(371,328)"/>
<path d="M0 0 C0.33 1.32 0.66 2.64 1 4 C1.66 4 2.32 4 3 4 C2.42365861 8.75481646 0.44931479 11.97048212 -2 16 C-2.33 15.34 -2.66 14.68 -3 14 C-2.505 13.0925 -2.01 12.185 -1.5 11.25 C0.23072533 7.50009511 -0.10680638 5.93005193 -1 2 C-0.67 1.34 -0.34 0.68 0 0 Z " fill="#363C41" transform="translate(43,305)"/>
<path d="M0 0 C1.32 0.66 2.64 1.32 4 2 C3.625 4.9375 3.625 4.9375 3 8 C2.01 8.495 2.01 8.495 1 9 C-1 6 -1 6 -0.625 2.8125 C-0.41875 1.884375 -0.2125 0.95625 0 0 Z " fill="#373F43" transform="translate(152,168)"/>
<path d="M0 0 C0.92015848 2.76047543 1.19267245 4.63362269 1.25 7.5 C1.27578125 8.2734375 1.3015625 9.046875 1.328125 9.84375 C0.9256922 12.48830838 0.03104151 13.33240802 -2 15 C-1.85973717 12.68715544 -1.71264442 10.37472409 -1.5625 8.0625 C-1.48128906 6.77472656 -1.40007812 5.48695313 -1.31640625 4.16015625 C-1 1 -1 1 0 0 Z " fill="#323B41" transform="translate(111,151)"/>
<path d="M0 0 C0.66 0 1.32 0 2 0 C2.25 2.75 2.25 2.75 2 6 C0 8.375 0 8.375 -2 10 C-3.39195915 5.82412255 -1.82323219 3.86525224 0 0 Z " fill="#464C50" transform="translate(115,113)"/>
<path d="M0 0 C-0.33 2.97 -0.66 5.94 -1 9 C-4 6 -4 6 -5 3 C-2.25 0 -2.25 0 0 0 Z " fill="#353D42" transform="translate(320,226)"/>
<path d="M0 0 C2 3 2 3 1.625 5.375 C1.41875 6.24125 1.2125 7.1075 1 8 C0.9629721 9.6662553 0.95240038 11.33401319 1 13 C0.01 13.33 -0.98 13.66 -2 14 C-1.85795259 12.41632253 -1.71119847 10.83306682 -1.5625 9.25 C-1.48128906 8.36828125 -1.40007812 7.4865625 -1.31640625 6.578125 C-1.03761535 4.30649548 -0.61209423 2.20148177 0 0 Z " fill="#343C42" transform="translate(102,144)"/>
<path d="M0 0 C2 3 2 3 1.75 5.625 C1.5025 6.40875 1.255 7.1925 1 8 C0.01 8.495 0.01 8.495 -1 9 C-1.625 6.1875 -1.625 6.1875 -2 3 C-1.34 2.01 -0.68 1.02 0 0 Z " fill="#374044" transform="translate(154,29)"/>
<path d="M0 0 C2.31 0.66 4.62 1.32 7 2 C6.67 2.99 6.34 3.98 6 5 C3.69 4.67 1.38 4.34 -1 4 C-0.67 2.68 -0.34 1.36 0 0 Z " fill="#333B42" transform="translate(164,11)"/>
<path d="M0 0 C0.66 0 1.32 0 2 0 C2.33 3.63 2.66 7.26 3 11 C2.34 10.67 1.68 10.34 1 10 C0.33203125 7.96875 0.33203125 7.96875 -0.1875 5.5 C-0.36667969 4.6853125 -0.54585937 3.870625 -0.73046875 3.03125 C-0.81941406 2.3609375 -0.90835937 1.690625 -1 1 C-0.67 0.67 -0.34 0.34 0 0 Z " fill="#32393E" transform="translate(10,351)"/>
<path d="M0 0 C2.1875 0.3125 2.1875 0.3125 4 1 C3.01 2.485 3.01 2.485 2 4 C1.34 4 0.68 4 0 4 C-0.33 4.99 -0.66 5.98 -1 7 C-1.66 5.68 -2.32 4.36 -3 3 C-1.75 1.4375 -1.75 1.4375 0 0 Z " fill="#494D52" transform="translate(388,10)"/>
<path d="M0 0 C2 1 2 1 2 1 Z M-2 1 C-1.34 1.33 -0.68 1.66 0 2 C-1.98 4.31 -3.96 6.62 -6 9 C-6.66 8.34 -7.32 7.68 -8 7 C-6.02 5.02 -4.04 3.04 -2 1 Z " fill="#494F52" transform="translate(419,256)"/>
<path d="M0 0 C0.33 0 0.66 0 1 0 C1.144375 0.763125 1.28875 1.52625 1.4375 2.3125 C1.9632594 5.08172908 1.9632594 5.08172908 3 8 C2.01 8.99 1.02 9.98 0 11 C-0.66 10.67 -1.32 10.34 -2 10 C-1.34 6.7 -0.68 3.4 0 0 Z " fill="#333B41" transform="translate(155,191)"/>
<path d="M0 0 C0.99 0 1.98 0 3 0 C3.125 3.375 3.125 3.375 3 7 C2.34 7.66 1.68 8.32 1 9 C0 8 0 8 -0.09765625 6.15234375 C-0.06510417 4.1015625 -0.03255208 2.05078125 0 0 Z " fill="#4B5155" transform="translate(306,181)"/>
<path d="M0 0 C1.51171875 1.34765625 1.51171875 1.34765625 3 3 C2.73865785 6.397448 1.64391844 9.04094682 0 12 C-1.31157516 9.37684968 -0.89649988 7.76966564 -0.5625 4.875 C-0.46066406 3.96492187 -0.35882813 3.05484375 -0.25390625 2.1171875 C-0.17011719 1.41851562 -0.08632812 0.71984375 0 0 Z " fill="#31393D" transform="translate(170,157)"/>
<path d="M0 0 C0 3.58912412 -0.66436554 4.10857029 -3 6.6875 C-3.556875 7.31011719 -4.11375 7.93273437 -4.6875 8.57421875 C-5.120625 9.04472656 -5.55375 9.51523438 -6 10 C-6.66 9.67 -7.32 9.34 -8 9 C-6.625 6.5 -6.625 6.5 -5 4 C-4.34 4 -3.68 4 -3 4 C-3 3.34 -3 2.68 -3 2 C-2.01 1.34 -1.02 0.68 0 0 Z " fill="#444B4F" transform="translate(602,146)"/>
<path d="M0 0 C0.99 0.33 1.98 0.66 3 1 C2.34 2.65 1.68 4.3 1 6 C0.34 6 -0.32 6 -1 6 C-1 6.66 -1 7.32 -1 8 C-1.66 8 -2.32 8 -3 8 C-1.125 2.25 -1.125 2.25 0 0 Z " fill="#4F5559" transform="translate(157,21)"/>
<path d="M0 0 C0.66 0.99 1.32 1.98 2 3 C1.125 6.6875 1.125 6.6875 0 10 C-0.99 9.67 -1.98 9.34 -3 9 C-2.01 6.03 -1.02 3.06 0 0 Z " fill="#50575D" transform="translate(77,340)"/>
<path d="M0 0 C0.33 0.99 0.66 1.98 1 3 C-0.3125 4.5 -0.3125 4.5 -2 6 C-2.99 6 -3.98 6 -5 6 C-4.75 4.125 -4.75 4.125 -4 2 C-1.9375 0.75 -1.9375 0.75 0 0 Z " fill="#333C42" transform="translate(63,268)"/>
<path d="M0 0 C0.66 0 1.32 0 2 0 C2 2.64 2 5.28 2 8 C1.01 7.67 0.02 7.34 -1 7 C-0.67 4.69 -0.34 2.38 0 0 Z " fill="#373D43" transform="translate(169,127)"/>
<path d="M0 0 C0.66 0.33 1.32 0.66 2 1 C1.67 4.3 1.34 7.6 1 11 C-1.26609984 6.46780033 -0.92735976 4.82227075 0 0 Z " fill="#343D44" transform="translate(275,106)"/>
<path d="M0 0 C0.99 0.33 1.98 0.66 3 1 C2.34 2.98 1.68 4.96 1 7 C0.34 7 -0.32 7 -1 7 C-0.67 4.69 -0.34 2.38 0 0 Z " fill="#454C52" transform="translate(98,326)"/>
<path d="M0 0 C0.33 0 0.66 0 1 0 C1 2.64 1 5.28 1 8 C-0.32 8.33 -1.64 8.66 -3 9 C-2.01 6.03 -1.02 3.06 0 0 Z " fill="#E1E5E7" transform="translate(61,276)"/>
<path d="M0 0 C0.66 0.66 1.32 1.32 2 2 C-0.64 4.31 -3.28 6.62 -6 9 C-6.66 8.67 -7.32 8.34 -8 8 C-5.36 5.36 -2.72 2.72 0 0 Z " fill="#E6E9EC" transform="translate(269,232)"/>
<path d="M0 0 C0.99 0.33 1.98 0.66 3 1 C2.34 2.32 1.68 3.64 1 5 C0.01 5 -0.98 5 -2 5 C-2 3.68 -2 2.36 -2 1 C-1.34 0.67 -0.68 0.34 0 0 Z " fill="#444B4F" transform="translate(290,204)"/>
<path d="M0 0 C0.33 1.32 0.66 2.64 1 4 C-0.98 4.99 -0.98 4.99 -3 6 C-3.33 4.35 -3.66 2.7 -4 1 C-2.68 1.33 -1.36 1.66 0 2 C0 1.34 0 0.68 0 0 Z " fill="#353D42" transform="translate(206,119)"/>
<path d="M0 0 C0.33 0 0.66 0 1 0 C1.33 2.64 1.66 5.28 2 8 C1.34 8 0.68 8 0 8 C-0.33 8.99 -0.66 9.98 -1 11 C-1.0270043 9.54176788 -1.04639787 8.08339325 -1.0625 6.625 C-1.07410156 5.81289062 -1.08570313 5.00078125 -1.09765625 4.1640625 C-1 2 -1 2 0 0 Z " fill="#333C42" transform="translate(193,59)"/>
<path d="M0 0 C0.33 0.66 0.66 1.32 1 2 C-0.65 3.98 -2.3 5.96 -4 8 C-4.66 7.34 -5.32 6.68 -6 6 C-4.02 4.02 -2.04 2.04 0 0 Z " fill="#434A50" transform="translate(434,241)"/>
<path d="M0 0 C0.66 0 1.32 0 2 0 C2.66 1.98 3.32 3.96 4 6 C2.68 6.33 1.36 6.66 0 7 C-0.38133299 5.0085944 -0.71325582 3.00720923 -1 1 C-0.67 0.67 -0.34 0.34 0 0 Z " fill="#444A4F" transform="translate(216,116)"/>
<path d="M0 0 C0.66 0 1.32 0 2 0 C2.66 2.31 3.32 4.62 4 7 C2.68 7 1.36 7 0 7 C0 4.69 0 2.38 0 0 Z " fill="#454B50" transform="translate(252,53)"/>
<path d="M0 0 C1.485 0.99 1.485 0.99 3 2 C3.66 1.34 4.32 0.68 5 0 C5.33 1.32 5.66 2.64 6 4 C5.01 4.33 4.02 4.66 3 5 C1.5 3.625 1.5 3.625 0 2 C0 1.34 0 0.68 0 0 Z " fill="#323A3F" transform="translate(343,301)"/>
<path d="M0 0 C0.66 0.33 1.32 0.66 2 1 C0.60667426 4.36720387 -0.9789286 5.9859524 -4 8 C-3.67 6.68 -3.34 5.36 -3 4 C-2.34 4 -1.68 4 -1 4 C-0.67 2.68 -0.34 1.36 0 0 Z " fill="#393F43" transform="translate(277,219)"/>
<path d="M0 0 C0.66 0 1.32 0 2 0 C1.67 1.65 1.34 3.3 1 5 C0.01 5 -0.98 5 -2 5 C-1.125 1.125 -1.125 1.125 0 0 Z " fill="#495155" transform="translate(283,212)"/>
<path d="M0 0 C0.66 0.33 1.32 0.66 2 1 C2 2.65 2 4.3 2 6 C0.68 5.34 -0.64 4.68 -2 4 C-1 1 -1 1 0 0 Z " fill="#373F43" transform="translate(235,195)"/>
<path d="M0 0 C1.25541557 3.76624671 0.37061958 5.37188934 -1 9 C-1.66 9 -2.32 9 -3 9 C-2.44271087 5.65626525 -1.64826111 2.96687001 0 0 Z " fill="#484D51" transform="translate(101,145)"/>
<path d="M0 0 C0.99 0 1.98 0 3 0 C2.67 2.31 2.34 4.62 2 7 C0 4 0 4 -1 1 C-0.67 0.67 -0.34 0.34 0 0 Z " fill="#464D51" transform="translate(276,145)"/>
<path d="M0 0 C0 0.66 0 1.32 0 2 C-2.64 2 -5.28 2 -8 2 C-8 1.34 -8 0.68 -8 0 C-5.13822943 -1.43088528 -3.06624227 -0.59991697 0 0 Z " fill="#333C44" transform="translate(396,14)"/>
</svg>
